<svg width="1024" height="1024" viewBox="0 0 1024 1024" fill="none" xmlns="http://www.w3.org/2000/svg">
  <defs>
    <linearGradient id="driverSplashBg" x1="120" y1="120" x2="904" y2="904" gradientUnits="userSpaceOnUse">
      <stop stop-color="#0F766E"/>
      <stop offset="1" stop-color="#065F46"/>
    </linearGradient>
  </defs>
  <rect width="1024" height="1024" rx="256" fill="url(#driverSplashBg)"/>
  <path d="M729.813 361.227C715.307 318.338 674.605 288 627.2 288H396.8C349.395 288 308.693 318.338 294.187 361.227L224 568V739.2C224 758.876 239.924 774.8 259.6 774.8H295.2C314.876 774.8 330.8 758.876 330.8 739.2V703.6H693.2V739.2C693.2 758.876 709.124 774.8 728.8 774.8H764.4C784.076 774.8 800 758.876 800 739.2V568L729.813 361.227ZM396.8 635.2C357.492 635.2 325.6 603.308 325.6 564C325.6 524.692 357.492 492.8 396.8 492.8C436.108 492.8 468 524.692 468 564C468 603.308 436.108 635.2 396.8 635.2ZM627.2 635.2C587.892 635.2 556 603.308 556 564C556 524.692 587.892 492.8 627.2 492.8C666.508 492.8 698.4 524.692 698.4 564C698.4 603.308 666.508 635.2 627.2 635.2ZM295.2 528.4L361.6 332H662.4L728.8 528.4H295.2Z" fill="white"/>
  <circle cx="396.8" cy="564" r="30" fill="#065F46"/>
  <circle cx="627.2" cy="564" r="30" fill="#065F46"/>
</svg>
